<svg xmlns="http://www.w3.org/2000/svg" width="100" height="100" viewBox="0 0 100 100"><path fill="#FF3F2E" d="M46.363 49.61c1.078.911 2.193 1.852 3.379 2.878a1.312 1.312 0 0 0 1.725 0c1.186-1.026 2.3-1.968 3.379-2.878 1.873-1.582 3.492-2.948 4.896-4.273 2.728-2.573 5.251-5.493 5.251-9.406 0-2.224-.764-4.308-2.15-5.866-1.461-1.642-3.486-2.546-5.703-2.546-2.474 0-4.618 1.17-6.202 3.383-.119.166-.23.332-.334.496-.104-.164-.215-.33-.333-.496-1.583-2.213-3.728-3.383-6.202-3.383-2.216 0-4.242.904-5.703 2.546-1.386 1.558-2.15 3.642-2.15 5.866 0 2.417.938 4.647 2.952 7.019 1.756 2.07 4.276 4.197 7.195 6.66z"/><path fill="#F2D1A5" d="M71.694 60.362l-6.323 8.431a9.234 9.234 0 0 1-7.376 3.688H46.244c-4.11 0-8.14-.843-11.935-2.45l-.29-8.114c1.765-8.457 10.512-10.564 15.57-6.112.553.448 1.186.738 1.818.817.185.053.343.053.5.053h4.77c.474 0 .922.132 1.317.368.764.422 1.29 1.265 1.316 2.239v.026c0 .975-.526 1.818-1.316 2.266a2.551 2.551 0 0 1-1.317.369h-8.036c-.738 0-1.317.579-1.317 1.317 0 .737.58 1.316 1.317 1.316h10.223c1.317 0 2.266-.553 3.082-1.475l5.979-6.902c.949-1.027 2.582-1.106 3.557-.264.238.185.448.396.606.658.607.898.528 2.557-.394 3.769z"/><path fill="#1EA1E3" d="M38.236 57.992a3.955 3.955 0 0 0-3.952-3.952h-5.445c-.728 0-1.317.589-1.317 1.317v15.807c0 .728.589 1.317 1.317 1.317h5.445a3.956 3.956 0 0 0 3.952-3.952V57.992z"/><g fill="#F2BB88"><path d="M50.604 61.943h6.074c.474 0 .922-.132 1.317-.369a2.59 2.59 0 0 0 1.316-2.266v-.026c-.026-.975-.553-1.817-1.316-2.239a2.56 2.56 0 0 0-1.317-.368h-4.77c-.157 0-.315 0-.5-.053a3.248 3.248 0 0 1-.804-.215v5.536z"/><path d="M65.371 68.793l6.323-8.431c.922-1.212 1.001-2.871.395-3.768a2.407 2.407 0 0 0-.605-.658c-.975-.843-2.608-.764-3.557.264l-5.98 6.902c-.816.922-1.765 1.475-3.082 1.475h-8.26v7.904h7.391a9.233 9.233 0 0 0 7.375-3.688z"/></g><path fill="#CF0404" d="M51.467 52.488c1.186-1.026 2.3-1.968 3.379-2.878 1.873-1.582 3.492-2.948 4.896-4.273 2.728-2.573 5.251-5.493 5.251-9.406 0-2.224-.764-4.308-2.15-5.866-1.461-1.642-3.486-2.546-5.703-2.546-2.474 0-4.618 1.17-6.202 3.383-.119.166-.23.332-.334.496v21.413c.308 0 .615-.108.863-.323z"/></svg>