<svg xmlns="http://www.w3.org/2000/svg" width="150" height="100" viewBox="0 0 150 100"><path fill="#FFF" d="M101.601 64.92c-16.625 0-30.15-13.526-30.15-30.151V31.15c0-15.029-12.227-27.256-27.256-27.256S16.938 16.122 16.938 31.15h-2.895C14.043 14.526 27.568 1 44.194 1c16.625 0 30.15 13.526 30.15 30.15v3.619c0 15.029 12.227 27.257 27.256 27.257s27.256-12.229 27.256-27.257h2.896c.001 16.625-13.525 30.151-30.151 30.151zm-3.618-54.754h-5.79v8.683h5.79v-8.683zm13.026 0h-5.791v8.683h5.791v-8.683zM8.493 84.239c-.549 0-.859-.3-.93-.901l-.269-2.099a17.796 17.796 0 0 1-.134-2.099c0-.178.011-.482.033-.91s.034-.731.034-.91c0-1.38-.256-2.07-.767-2.07-.716 0-1.399.425-2.052 1.275-.587.772-1.047 1.75-1.379 2.932-.013.25-.042.563-.086.939a7.67 7.67 0 0 0-.058.929c0 .192.019.479.058.862.037.384.057.671.057.863 0 .287-.087.521-.264.699a.904.904 0 0 1-.676.269c-.28 0-.507-.09-.68-.269s-.259-.412-.259-.699a8.94 8.94 0 0 0-.062-.863 8.903 8.903 0 0 1-.062-.862c0-.657.047-1.569.14-2.734.092-1.167.139-2.078.139-2.736 0-.205-.012-.509-.033-.911a18.408 18.408 0 0 1-.034-.909c0-.276.091-.501.273-.676a.934.934 0 0 1 .676-.264c.587 0 .909.415.968 1.245l.028 1.121c1.073-1.43 2.176-2.146 3.307-2.146 1.021 0 1.734.451 2.137 1.353.274.6.425 1.486.45 2.663v.968l-.01.891c0 .531.069 1.216.206 2.057.138.839.206 1.521.206 2.045 0 .281-.091.51-.273.686a.956.956 0 0 1-.684.261zm7.755-5.03c0 .384.011.956.033 1.72s.034 1.336.034 1.72a.95.95 0 0 1-.259.689c-.173.18-.399.269-.681.269a.906.906 0 0 1-.676-.269.943.943 0 0 1-.264-.689c0-.384-.011-.956-.032-1.72a61.958 61.958 0 0 1-.034-1.72c0-.602.032-1.35.096-2.247a33.27 33.27 0 0 0 .096-2.248c0-.287.087-.521.264-.699a.905.905 0 0 1 .676-.269c.273 0 .5.09.676.269.175.179.263.412.263.699 0 .601-.032 1.349-.095 2.248a31.983 31.983 0 0 0-.097 2.247zm-.431-7.782c-.308 0-.572-.108-.796-.325s-.335-.479-.335-.787c0-.306.111-.567.335-.785.224-.217.488-.325.796-.325.307 0 .57.108.791.325.22.218.33.479.33.785 0 .308-.11.57-.33.787a1.09 1.09 0 0 1-.791.325zm13.592 12.812c-.551 0-.86-.3-.931-.901l-.269-2.099a17.595 17.595 0 0 1-.135-2.099c0-.178.012-.482.034-.91s.034-.731.034-.91c0-1.38-.256-2.07-.768-2.07-.715 0-1.398.425-2.051 1.275-.587.772-1.047 1.75-1.379 2.932-.014.25-.042.563-.087.939-.038.319-.058.63-.058.929 0 .192.02.479.058.862.039.384.058.671.058.863 0 .287-.088.521-.264.699s-.4.269-.675.269c-.281 0-.509-.09-.681-.269-.173-.179-.259-.412-.259-.699a8.94 8.94 0 0 0-.062-.863 8.903 8.903 0 0 1-.062-.862c0-.657.047-1.569.139-2.734.093-1.167.14-2.078.14-2.736 0-.205-.011-.509-.033-.911a17.227 17.227 0 0 1-.034-.909c0-.276.091-.501.273-.676a.933.933 0 0 1 .675-.264c.589 0 .911.415.969 1.245l.028 1.121c1.073-1.43 2.176-2.146 3.306-2.146 1.022 0 1.734.451 2.137 1.353.276.6.425 1.486.451 2.663v.968l-.01.891c0 .531.069 1.216.206 2.057.137.839.206 1.521.206 2.045 0 .281-.092.51-.273.686a.953.953 0 0 1-.683.261zm-4.544-15.572c.639 0 1.153.186 1.544.556l.794 1.016c.302.371.659.556 1.074.556.364 0 .636-.117.814-.354l.44-.843.191-.565c.091-.186.281-.278.575-.278.479 0 .719.236.719.709 0 .23-.138.617-.412 1.16-.255.511-.476.863-.661 1.055-.357.363-.814.546-1.37.546-.836 0-1.492-.183-1.964-.546-.173-.135-.454-.477-.844-1.026-.269-.364-.568-.545-.901-.545-.197 0-.375.036-.531.11a1.114 1.114 0 0 0-.407.33l-.422.813c-.16.288-.367.432-.623.432a.753.753 0 0 1-.518-.196.636.636 0 0 1-.22-.493c0-.07.01-.144.028-.221.179-.652.502-1.18.968-1.58a2.582 2.582 0 0 1 1.726-.636zm13.631 15.457c-1.074 0-1.996-.396-2.77-1.188-.863-.882-1.316-2.067-1.361-3.555-.039-1.444.326-2.716 1.093-3.814.895-1.297 2.141-1.945 3.736-1.945 1.279 0 2.245.584 2.904 1.753.524.945.776 2.083.758 3.411-.02 1.419-.391 2.629-1.112 3.633-.817 1.138-1.9 1.705-3.248 1.705zm.574-8.557c-.938-.008-1.671.44-2.193 1.342-.417.722-.624 1.545-.624 2.473 0 .926.252 1.647.758 2.165.421.428.915.641 1.485.641.664 0 1.234-.242 1.715-.727.544-.537.831-1.263.863-2.177.09-2.472-.58-3.711-2.004-3.717zm25.517-.556l-3.315 7.168c-.819 1.744-1.445 3.205-1.88 4.379l-.634 1.859c-.164.461-.453.69-.861.69-.268 0-.499-.088-.694-.264s-.293-.395-.293-.656c0-.639.691-2.489 2.069-5.549l-3.431-6.603-.43-.698c-.173-.295-.259-.54-.259-.738 0-.263.1-.493.301-.69.202-.198.429-.297.675-.297.295 0 .523.11.682.336 1.088 1.507 2.251 3.653 3.497 6.438l1.419-3.306a33.657 33.657 0 0 1 1.476-2.951c.204-.358.473-.537.806-.537.262 0 .494.093.694.277a.872.872 0 0 1 .303.662 1.196 1.196 0 0 1-.125.48zm17.193 9.151c-1.307 0-2.4-.396-3.274-1.188-.921-.831-1.38-1.927-1.38-3.287 0-1.297.431-2.635 1.294-4.016.958-1.532 2.036-2.3 3.238-2.3.626 0 1.324.147 2.098.44.979.377 1.468.838 1.468 1.381 0 .242-.08.458-.241.646a.742.742 0 0 1-.593.282.746.746 0 0 1-.484-.166c-.138-.112-.27-.224-.398-.331-.377-.301-.993-.451-1.849-.451-.653 0-1.298.582-1.936 1.743-.582 1.067-.872 1.992-.872 2.771 0 .843.287 1.508.861 1.993.537.453 1.229.681 2.068.681.385 0 .795-.103 1.229-.307l1.109-.594c.191-.103.331-.153.412-.153.237 0 .442.094.614.281a.934.934 0 0 1 .259.647c0 .467-.492.917-1.477 1.352-.86.385-1.575.576-2.146.576zm15.95.028c-.12 0-.341-.141-.66-.421-.287-.262-.504-.495-.642-.7a12.07 12.07 0 0 1-1.621.753c-.465.169-.855.254-1.168.254-1.494 0-2.586-.421-3.267-1.265-.647-.792-.969-2.006-.969-3.643 0-1.545.53-2.868 1.595-3.967 1.063-1.099 2.335-1.646 3.809-1.646.557 0 1.179.143 1.868.431.869.356 1.304.789 1.304 1.294a.647.647 0 0 1-.189.458c-.067.244-.115.644-.149 1.199a39.436 39.436 0 0 0-.063 2.137c-.006.793.048 1.419.163 1.878.064.28.266.844.604 1.687.044.115.117.284.221.508l.057.162a.83.83 0 0 1-.268.634.899.899 0 0 1-.625.247zm-1.992-6.659c0-.274.017-.572.054-.896.034-.322.086-.666.156-1.029a4.496 4.496 0 0 0-.608-.268 1.364 1.364 0 0 0-.408-.088c-.989 0-1.843.405-2.562 1.213-.718.808-1.077 1.74-1.077 2.793 0 1.049.186 1.833.557 2.357.369.524.925.786 1.667.786.612 0 1.133-.112 1.562-.335.229-.122.554-.364.969-.729-.207-1.692-.31-2.96-.31-3.804zm-1.381-5.347c-.229 0-.433-.089-.608-.268s-.264-.384-.264-.613c0-.218.1-.425.297-.624.275-.268.694-.775 1.257-1.522a6.505 6.505 0 0 1 1.407-1.371.89.89 0 0 1 .509-.183.81.81 0 0 1 .604.274.88.88 0 0 1 .26.617c0 .256-.122.479-.365.671-.448.358-.877.821-1.294 1.39-.435.601-.846 1.063-1.236 1.389-.18.161-.369.24-.567.24zm15.709 12.055c-.549 0-.859-.3-.928-.901l-.271-2.099a17.562 17.562 0 0 1-.132-2.099c0-.178.01-.482.032-.91.021-.428.033-.731.033-.91 0-1.38-.257-2.07-.766-2.07-.716 0-1.399.425-2.051 1.275-.589.772-1.051 1.75-1.382 2.932-.011.25-.04.563-.086.939-.038.319-.058.63-.058.929 0 .192.02.479.058.862.04.384.058.671.058.863 0 .287-.088.521-.263.699a.906.906 0 0 1-.675.269c-.282 0-.51-.09-.682-.269-.173-.179-.259-.412-.259-.699a8.94 8.94 0 0 0-.062-.863 8.588 8.588 0 0 1-.062-.862c0-.657.046-1.569.138-2.734.094-1.167.142-2.078.142-2.736 0-.205-.014-.509-.034-.911a17.473 17.473 0 0 1-.035-.909c0-.276.092-.501.274-.676a.934.934 0 0 1 .676-.264c.585 0 .91.415.966 1.245l.031 1.121c1.071-1.43 2.174-2.146 3.306-2.146 1.021 0 1.733.451 2.136 1.353.275.6.425 1.486.452 2.663v.968l-.01.891c0 .531.066 1.216.204 2.057.139.839.205 1.521.205 2.045 0 .281-.09.51-.271.686a.952.952 0 0 1-.684.261zm9.826-.077c-1.31 0-2.402-.396-3.277-1.188-.92-.831-1.38-1.927-1.38-3.287 0-1.297.431-2.635 1.294-4.016.959-1.532 2.037-2.3 3.238-2.3.626 0 1.327.147 2.101.44.976.377 1.464.838 1.464 1.381a.964.964 0 0 1-.239.646.748.748 0 0 1-.594.282.752.752 0 0 1-.484-.166 46.3 46.3 0 0 1-.397-.331c-.375-.301-.993-.451-1.85-.451-.65 0-1.297.582-1.937 1.743-.58 1.067-.871 1.992-.871 2.771 0 .843.289 1.508.861 1.993.538.453 1.229.681 2.071.681.383 0 .792-.103 1.227-.307l1.11-.594c.193-.103.329-.153.413-.153.235 0 .44.094.615.281a.933.933 0 0 1 .258.647c0 .467-.492.917-1.476 1.352-.861.385-1.579.576-2.147.576zM132.688 84c-1.444 0-2.614-.361-3.508-1.084-.979-.798-1.467-1.916-1.467-3.354 0-1.66.402-3.054 1.208-4.178.875-1.227 2.044-1.84 3.507-1.84 1.061 0 1.926.178 2.598.536.822.441 1.236 1.118 1.236 2.031 0 .64-.362 1.221-1.084 1.744-.319.23-.997.589-2.032 1.073l-3.66 1.735c.358.53.805.929 1.338 1.197.532.27 1.154.402 1.864.402.44 0 .957-.083 1.551-.248.754-.212 1.24-.488 1.459-.829.216-.343.449-.514.698-.514a.83.83 0 0 1 .597.255.783.783 0 0 1 .265.589c0 .71-.572 1.318-1.715 1.831-.977.435-1.93.654-2.855.654zm-.259-8.729c-.779 0-1.428.302-1.945.904-.517.604-.905 1.513-1.159 2.727l2.941-1.398c1.156-.562 1.981-1.051 2.474-1.467-.551-.512-1.32-.766-2.311-.766zm16.562 1.207c-.046.798-.366 1.198-.959 1.198-.55 0-.823-.317-.823-.95 0-.12-.012-.344-.03-.671l-.027-.805c-1.011.122-1.818.407-2.425.854-.568.416-1.041 1.041-1.419 1.878l.02 5.251c0 .646-.315.969-.949.969-.561 0-.842-.322-.842-.969v-6.728c0-.21.005-.527.024-.947.014-.422.023-.738.023-.949 0-.646.279-.968.842-.968.626 0 .943.53.949 1.591 1.227-1.183 2.588-1.772 4.083-1.772.517 0 .903.195 1.158.584.256.39.385.978.385 1.764 0 .332-.004.553-.01.67zM17.192 92.477a.456.456 0 0 1-.174-.036c-.38-.141-.883-.212-1.507-.212-.202 0-.438.016-.71.046-.271.028-.575.073-.912.135l-.009 1.983c.591-.155 1.035-.234 1.332-.234.472 0 .96.028 1.466.083.288.03.432.187.432.469a.467.467 0 0 1-.134.342.438.438 0 0 1-.331.136c-.158 0-.397-.014-.716-.04a8.607 8.607 0 0 0-.717-.043c-.208 0-.658.09-1.351.267l-.041 3.16a.465.465 0 0 1-.129.333.433.433 0 0 1-.324.134.459.459 0 0 1-.46-.469c0-.604.012-1.509.034-2.717.023-1.208.034-2.113.034-2.718 0-.134-.002-.337-.006-.607-.005-.271-.008-.474-.008-.608s.042-.248.127-.34a.423.423 0 0 1 .328-.138c.102 0 .191.026.271.082.38-.067.721-.117 1.024-.149.303-.031.569-.048.799-.048.353 0 .755.051 1.208.151.615.141.923.324.923.551 0 .123-.04.232-.119.327a.408.408 0 0 1-.33.16zm12.122 6.219c-.952 0-1.662-.274-2.131-.821-.38-.441-.619-1.094-.717-1.957-.046-.389-.069-1.165-.069-2.329 0-.429.011-.774.028-1.037.019-.278.046-.473.082-.584.078-.223.216-.335.414-.335.281 0 .423.259.423.776v2.695c0 1.856.649 2.783 1.947 2.783 1.222 0 1.833-1.561 1.833-4.685v-.449a18.24 18.24 0 0 1-.005-.369c0-.189.034-.355.102-.5.085-.184.212-.276.381-.276.306 0 .46.21.46.63 0 .127.001.315.004.57v.569c0 3.547-.917 5.319-2.752 5.319zm18.245-1.203c0 .146-.022.392-.072.735-.048.31-.213.464-.492.464-.168 0-.369-.109-.601-.331-1.246-1.179-2.676-2.879-4.29-5.103l-.022 1.042-.016 1.048c0 .254.008.636.018 1.143.01.509.016.892.016 1.148 0 .824-.159 1.237-.477 1.237a.511.511 0 0 1-.4-.162.486.486 0 0 1-.134-.34c0-.128.011-.322.03-.583s.028-.454.028-.584c0-.189.006-.475.02-.852.012-.378.018-.662.018-.853 0-.202-.004-.507-.012-.916-.01-.408-.014-.714-.014-.916 0-.193-.019-.479-.056-.861a9.333 9.333 0 0 1-.055-.86c0-.142.059-.271.18-.387a.59.59 0 0 1 .411-.175c.163 0 .364.178.604.533.762 1.142 1.446 2.091 2.058 2.847a25.726 25.726 0 0 0 2.389 2.573 6.904 6.904 0 0 0 0-.583l-.016-.579c0-1.344-.052-2.415-.155-3.211a5.205 5.205 0 0 0-.124-.481 1.837 1.837 0 0 1-.092-.488c0-.354.162-.532.486-.532.533 0 .8.994.8 2.981 0 .34-.004.848-.014 1.522s-.016 1.185-.016 1.524zm13.226.987c-.475.325-1.156.488-2.044.488-.225 0-.48-.036-.768-.106-.345-.082-.605-.19-.781-.321h-.046a.465.465 0 0 1-.463-.473c0-.322.013-.805.044-1.445.028-.642.044-1.123.044-1.444 0-.358-.008-.893-.021-1.606a80.58 80.58 0 0 1-.021-1.604c0-.125.062-.257.193-.396.128-.138.256-.206.385-.206.072 0 .317.102.734.308.473.229.745.356.817.381a5.678 5.678 0 0 1 2.225 1.369c.72.726 1.079 1.523 1.079 2.393 0 .524-.124 1.026-.371 1.507-.244.48-.579.865-1.006 1.155zm-.965-4.859c-.312-.205-1.033-.558-2.163-1.057l.021 1.323.016 1.318-.075 2.509a.447.447 0 0 1 .098.06c.271.181.608.271 1.021.271.696 0 1.206-.108 1.523-.321.299-.202.534-.475.71-.816.177-.341.265-.697.265-1.067-.001-.864-.471-1.604-1.416-2.22zm16.417 5.029c-.281 0-.526-.36-.734-1.083-.079-.276-.181-.759-.299-1.447-.312.042-.72.119-1.228.229l-1.221.254c-.153.402-.415.987-.785 1.759-.1.172-.231.258-.399.258a.472.472 0 0 1-.329-.133.437.437 0 0 1-.146-.332c0-.146.233-.705.694-1.676a.496.496 0 0 1-.078-.277c0-.246.151-.405.449-.478.351-.654.791-1.407 1.323-2.259.727-1.16 1.179-1.74 1.356-1.74.241 0 .406.169.494.504l.291 1.544.684 3.193.262.725c.088.249.134.415.134.497a.436.436 0 0 1-.142.33.463.463 0 0 1-.326.132zm-1.621-5.249l-1.313 2.117c.37-.095.933-.21 1.685-.345l-.372-1.772zm15.696-.042c-.195 0-.343-.116-.44-.344-.086-.197-.166-.315-.239-.359-.062-.034-.224-.05-.479-.05-.443 0-.936.34-1.478 1.019-.735.913-1.103 1.778-1.103 2.596 0 .396.127.735.379 1.021.263.293.576.439.943.439.316 0 .632-.081.95-.243.178-.092.449-.273.819-.542.174-.128.306-.193.394-.193a.42.42 0 0 1 .329.149c.091.1.137.211.137.334a.47.47 0 0 1-.177.361c-.808.717-1.625 1.075-2.452 1.075-.633 0-1.169-.243-1.607-.73a2.419 2.419 0 0 1-.634-1.672c0-1.037.435-2.102 1.304-3.191.726-.91 1.459-1.365 2.195-1.365.149 0 .285.007.404.021.12.014.226.036.317.065a.492.492 0 0 1 .417-.234c.213 0 .345.141.4.419.05.247.073.553.073.915a.56.56 0 0 1-.1.33.4.4 0 0 1-.352.179zm12.856-.569a5.75 5.75 0 0 1-.738-.061l-.739-.096c-.07.891-.107 1.743-.107 2.554 0 .214.008.479.02.794.012.316.018.582.018.795 0 .288-.01.55-.033.785l1.447-.019a.46.46 0 0 1 .456.471.47.47 0 0 1-.131.337.435.435 0 0 1-.325.136c-.17 0-.427.003-.771.011-.343.007-.599.011-.771.011-.2 0-.503.029-.907.086a7.239 7.239 0 0 1-.911.085.43.43 0 0 1-.323-.135c-.088-.093-.132-.202-.132-.334s.044-.243.132-.335a.423.423 0 0 1 .323-.139c.199 0 .528-.032.988-.097.03-.246.044-.53.044-.85 0-.21-.01-.47-.029-.774-.019-.304-.03-.561-.03-.77 0-.706.046-1.59.13-2.649l-.597.019-.598.015a.451.451 0 0 1-.331-.134.463.463 0 0 1-.132-.34c0-.285.144-.441.431-.469.249-.025.712-.037 1.392-.037.61 0 1.374.066 2.293.197.271.04.407.204.407.492a.425.425 0 0 1-.154.345.521.521 0 0 1-.322.106zm12.292 6.003c-.863 0-1.594-.259-2.195-.775-.637-.552-.955-1.262-.955-2.132 0-1.06.314-2.023.94-2.89.702-.961 1.577-1.442 2.624-1.442 1.007 0 1.757.228 2.245.68.511.473.768 1.216.768 2.234 0 1.06-.287 2.015-.863 2.866-.661.973-1.514 1.459-2.564 1.459zm.414-6.297c-.75 0-1.386.374-1.906 1.121a3.87 3.87 0 0 0-.722 2.269c0 .592.22 1.072.658 1.442.419.349.938.523 1.556.523.745 0 1.359-.375 1.844-1.125a4.092 4.092 0 0 0 .645-2.259c0-.733-.162-1.247-.489-1.544-.315-.285-.842-.427-1.586-.427zm18.355 4.997c0 .146-.022.392-.072.735-.05.31-.215.464-.492.464-.168 0-.369-.109-.601-.331-1.246-1.179-2.678-2.879-4.292-5.103l-.021 1.042-.016 1.048c0 .254.006.636.016 1.143.011.509.017.892.017 1.148 0 .824-.158 1.237-.479 1.237a.503.503 0 0 1-.397-.162.478.478 0 0 1-.135-.34c0-.128.01-.322.031-.583.019-.261.028-.454.028-.584 0-.189.006-.475.02-.852.012-.378.017-.662.017-.853 0-.202-.003-.507-.013-.916-.008-.408-.014-.714-.014-.916 0-.193-.018-.479-.054-.861a9.416 9.416 0 0 1-.056-.86c0-.142.06-.271.181-.387a.582.582 0 0 1 .411-.175c.163 0 .363.178.603.533.762 1.142 1.447 2.091 2.058 2.847a25.821 25.821 0 0 0 2.387 2.573c.01-.133.01-.326 0-.583l-.013-.579c0-1.344-.052-2.415-.157-3.211a5.304 5.304 0 0 0-.122-.481 1.807 1.807 0 0 1-.093-.488c0-.354.161-.532.486-.532.532 0 .801.994.801 2.981 0 .34-.006.848-.016 1.522s-.013 1.185-.013 1.524z"/></svg>