<svg xmlns="http://www.w3.org/2000/svg" width="100" height="100" viewBox="0 0 100 100"><path fill="#355382" d="M31.515 48.468a4.602 4.602 0 0 1-4.596-4.596 4.602 4.602 0 0 1 4.596-4.596 4.602 4.602 0 0 1 4.393 5.95 1.534 1.534 0 0 1-2.099.939c.499 1.147-.215 2.303-2.294 2.303z"/><path fill="#FF3F2E" d="M53.799 23.855c-1.685 0-2.94.766-3.799 1.747-.858-.98-2.114-1.747-3.799-1.747-3.002 0-5.331 2.482-5.331 5.668 0 3.309 2.573 5.515 6.158 8.518.613.521 1.287 1.072 1.961 1.686.306.245.643.368 1.011.368.367 0 .704-.123 1.011-.368.675-.613 1.349-1.165 1.961-1.686 1.073-.919 2.054-1.715 2.88-2.512 1.686-1.593 3.279-3.462 3.279-6.005-.001-3.187-2.329-5.669-5.332-5.669z"/><path fill="#1EA1E3" d="M68.485 57.66H53.228c-.337 3.799-1.134 12.133-1.501 15.319h22.887c.857 0 1.531-.675 1.531-1.532v-6.128a7.662 7.662 0 0 0-7.66-7.659z"/><path fill="#368DCF" d="M76.145 65.319v6.128c0 .857-.674 1.532-1.531 1.532H62.357V57.66h6.128a7.662 7.662 0 0 1 7.66 7.659z"/><path fill="#FF73A5" d="M46.865 57.66h-15.35a7.663 7.663 0 0 0-7.66 7.659v6.128c0 .857.674 1.532 1.532 1.532h22.734L46.865 57.66z"/><path fill="#FF5F96" d="M48.121 72.979H37.643V57.66h9.222z"/><path fill="#F2D1A5" d="M67.383 48.376l-5.025-.337-5.974-.368c-.797-.031-1.532.551-1.624 1.348a9.791 9.791 0 0 0-.062.98v3.064a7.662 7.662 0 0 0 7.659 7.659 7.662 7.662 0 0 0 7.66-7.659V51.53l-2.634-3.154z"/><path fill="#F2BB88" d="M70.018 51.531v1.533a7.662 7.662 0 0 1-7.66 7.659V48.039l5.025.337 2.635 3.155z"/><path fill="#F2D1A5" d="M45.302 50v3.064c0 4.228-3.432 7.659-7.66 7.659s-7.66-3.432-7.66-7.659v-1.043l1.869-2.512 5.791-2.604 1.256-.551 5.454-.062c.583 1.012.95 2.298.95 3.708z"/><path fill="#F2BB88" d="M45.302 50v3.064a7.662 7.662 0 0 1-7.66 7.659V46.905l1.256-.551 5.454-.062c.583 1.012.95 2.298.95 3.708z"/><path d="M59.13 29.523c0 2.543-1.593 4.412-3.278 6.005-.827.797-1.808 1.593-2.88 2.512-.612.521-1.286 1.072-1.961 1.686a1.585 1.585 0 0 1-1.011.368V25.602c.858-.98 2.114-1.747 3.799-1.747 3.003 0 5.331 2.482 5.331 5.668zM53.063 63.89h-6.127a7.663 7.663 0 0 0-7.66 7.659v3.064c0 .857.674 1.531 1.532 1.531h18.383c.858 0 1.532-.674 1.532-1.531v-3.064a7.661 7.661 0 0 0-7.66-7.659z" fill="#CF0404"/><path fill="#B80000" d="M60.724 71.549v3.064c0 .857-.674 1.531-1.532 1.531H50V63.89h3.063a7.663 7.663 0 0 1 7.661 7.659z"/><path fill="#F2D1A5" d="M50 54.698c-3.37 0-6.128 2.758-6.128 6.128S46.63 66.953 50 66.953s6.128-2.757 6.128-6.127S53.37 54.698 50 54.698z"/><path fill="#F2BB88" d="M56.128 60.826c0 3.37-2.758 6.127-6.128 6.127V54.698c3.37 0 6.128 2.758 6.128 6.128z"/><path fill="#3F6199" d="M44.353 46.292l-6.71 2.666-7.66 3.063V50a7.663 7.663 0 0 1 7.66-7.66c2.879 0 5.392 1.594 6.71 3.952z"/><path fill="#355382" d="M44.353 46.292l-6.71 2.666V42.34c2.879 0 5.392 1.594 6.71 3.952z"/><path fill="#3F6199" d="M62.357 42.34h-9.191c-.857 0-1.531.674-1.531 1.532a7.66 7.66 0 0 0 7.659 7.659h10.724V50a7.663 7.663 0 0 0-7.661-7.66z"/><path fill="#355382" d="M70.018 51.531h-7.66V42.34a7.663 7.663 0 0 1 7.66 7.66v1.531z"/></svg>