<svg xmlns="http://www.w3.org/2000/svg" width="100" height="100" viewBox="0 0 100 100"><path fill="#ECEDF2" d="M49.622 27.229h23.015v46.429H27.364V27.229h6.234"/><path fill="#C6CAD5" d="M49.622 27.229h23.015v4.773H27.364v-4.773h6.234"/><path fill="#525C66" d="M43.451 29.035H74.67a.83.83 0 0 0 .83-.83v-1.954a.83.83 0 0 0-.83-.83H25.331a.83.83 0 0 0-.83.83v1.954c0 .459.372.83.83.83h13.012"/><circle fill="#C6CAD5" cx="41.61" cy="34.955" r="9.38"/><circle fill="#FFF" cx="41.61" cy="33.914" r="9.38"/><path fill="#D81616" d="M47.087 32.073h-3.221a.416.416 0 0 1-.415-.416v-3.221a.415.415 0 0 0-.415-.415h-2.853a.416.416 0 0 0-.416.415v3.221a.416.416 0 0 1-.416.416H36.13a.415.415 0 0 0-.415.415v2.853c0 .229.186.415.415.415h3.221c.229 0 .416.187.416.415v3.222c0 .229.186.415.416.415h2.853a.415.415 0 0 0 .415-.415v-3.222c0-.229.186-.415.415-.415h3.221a.415.415 0 0 0 .415-.415v-2.853a.415.415 0 0 0-.415-.415z"/><path d="M55.829 46.442h5.072v9.263h-5.072zm-16.73 0h5.072v9.263h-5.072zm25.095 0h5.072v9.263h-5.072zm-16.731 0h5.073v9.263h-5.073zm-16.729 0h5.072v9.263h-5.072zm8.365 12.412h5.072v9.263h-5.072zm8.364 0h5.073v9.263h-5.073zm-16.729 0h5.072v9.263h-5.072zM55.829 34.03h5.072v9.263h-5.072zm8.365 0h5.072v9.263h-5.072z" fill="#A0D9F2"/><path d="M60.901 56.329h-5.072a.624.624 0 0 1-.624-.624v-9.263c0-.345.279-.625.624-.625h5.072c.345 0 .625.28.625.625v9.263c0 .345-.28.624-.625.624zm-4.448-1.249h3.824v-8.014h-3.824v8.014zm-12.282 1.249h-5.073a.624.624 0 0 1-.624-.624v-9.263c0-.345.279-.625.624-.625h5.073c.345 0 .625.28.625.625v9.263c0 .345-.28.624-.625.624zm-4.448-1.249h3.824v-8.014h-3.824v8.014zm29.544 1.249h-5.072a.624.624 0 0 1-.624-.624v-9.263c0-.345.279-.625.624-.625h5.072c.345 0 .625.28.625.625v9.263a.625.625 0 0 1-.625.624zm-4.449-1.249h3.824v-8.014h-3.824v8.014zm-12.282 1.249h-5.072a.624.624 0 0 1-.625-.624v-9.263c0-.345.28-.625.625-.625h5.072c.345 0 .625.28.625.625v9.263c0 .345-.28.624-.625.624zm-4.448-1.249h3.824v-8.014h-3.824v8.014zm-12.282 1.249h-5.072a.624.624 0 0 1-.625-.624v-9.263c0-.345.28-.625.625-.625h5.072c.345 0 .625.28.625.625v9.263c0 .345-.28.624-.625.624zm-4.448-1.249h3.824v-8.014h-3.824v8.014z" fill="#FFF"/><path fill="#A0D9F2" d="M69.267 58.854H55.829v12.997l13.438 1.041z"/><g fill="#FFF"><path d="M69.892 72.371h-1.249V59.479h-12.19v12.893h-1.248V58.854c0-.345.279-.624.624-.624h13.438c.345 0 .625.279.625.624v13.517zM44.171 68.74h-5.073a.624.624 0 0 1-.624-.624v-9.263c0-.345.279-.624.624-.624h5.073c.345 0 .625.279.625.624v9.263c0 .345-.28.624-.625.624zm-4.448-1.249h3.824v-8.013h-3.824v8.013zm12.813 1.249h-5.072a.624.624 0 0 1-.625-.624v-9.263c0-.345.28-.624.625-.624h5.072c.345 0 .625.279.625.624v9.263c0 .345-.28.624-.625.624zm-4.448-1.249h3.824v-8.013h-3.824v8.013zM35.806 68.74h-5.072a.624.624 0 0 1-.625-.624v-9.263c0-.345.28-.624.625-.624h5.072c.345 0 .625.279.625.624v9.263c0 .345-.28.624-.625.624zm-4.448-1.249h3.824v-8.013h-3.824v8.013zm29.543-23.572h-5.072a.624.624 0 0 1-.624-.625v-9.263c0-.345.279-.625.624-.625h5.072c.345 0 .625.28.625.625v9.263c0 .345-.28.625-.625.625zm-4.448-1.249h3.824v-8.015h-3.824v8.015zm12.814 1.249h-5.072a.624.624 0 0 1-.624-.625v-9.263c0-.345.279-.625.624-.625h5.072c.345 0 .625.28.625.625v9.263a.626.626 0 0 1-.625.625zm-4.449-1.249h3.824v-8.015h-3.824v8.015z"/><path d="M55.829 61.403h13.438v1.249H55.829z"/><path d="M61.924 62.027h1.249V72.89h-1.249zm-22.825-.832h5.073v1.249h-5.073zm13.437 1.248h-5.072v-1.249h4.448v-2.341h1.249v2.966a.624.624 0 0 1-.625.624zm-21.802-1.248h5.072v1.249h-5.072zm38.533-11.162h-5.072v-1.249h4.448v-2.342h1.249v2.966a.626.626 0 0 1-.625.625zm-21.804-1.249h5.073v1.249h-5.073zm-16.729 0h5.072v1.249h-5.072zm8.365 0h5.073v1.249h-5.073zm16.729 0h5.073v1.249h-5.073zm13.439-11.162h-5.072v-1.249h4.448v-2.342h1.249v2.967a.625.625 0 0 1-.625.624zm-13.439-1.249h5.073v1.249h-5.073z"/></g><path fill="#423E3E" d="M73.973 71.851H26.027c-.843 0-1.527.684-1.527 1.527v2.088h51v-2.088c0-.844-.684-1.527-1.527-1.527z"/></svg>