<svg xmlns="http://www.w3.org/2000/svg" width="100" height="100" viewBox="0 0 100 100"><path fill="#CB2128" d="M69.06 64.536h13.73L95 52.327 81.035 38.362 69.06 50.357z"/><path d="M70.697 50.875h.83v1.184c.326-.45.702-.787 1.127-1.012a3.011 3.011 0 0 1 1.427-.337c.913 0 1.695.329 2.347.988.65.658.975 1.451.975 2.379 0 .946-.322 1.751-.967 2.411-.643.661-1.422.991-2.331.991a3.14 3.14 0 0 1-1.414-.319c-.431-.212-.816-.53-1.163-.953v3.463h-.83v-8.795zm3.315.634c-.717 0-1.319.25-1.81.75s-.735 1.123-.735 1.868c0 .489.109.929.327 1.318.22.39.531.699.94.928.406.229.837.344 1.288.344.447 0 .864-.115 1.257-.347.39-.23.702-.553.935-.966a2.61 2.61 0 0 0 .004-2.602 2.504 2.504 0 0 0-.93-.955 2.511 2.511 0 0 0-1.276-.338zm3.846-3.119h.83v8.925h-.83V48.39zm1.476 2.485h.828v3.007c0 .734.04 1.239.12 1.515.117.396.343.706.677.936s.733.343 1.196.343c.461 0 .853-.111 1.176-.334a1.73 1.73 0 0 0 .667-.879c.083-.249.125-.775.125-1.58v-3.007h.846v3.16c0 .888-.104 1.557-.311 2.007a2.374 2.374 0 0 1-.937 1.057c-.416.254-.937.381-1.564.381s-1.151-.127-1.572-.381a2.364 2.364 0 0 1-.94-1.065c-.207-.456-.311-1.142-.311-2.057v-3.103zm9.742.704l-.531.551c-.445-.43-.877-.646-1.3-.646a.985.985 0 0 0-.691.267.824.824 0 0 0-.289.621c0 .21.08.409.238.598.157.193.49.42.996.681.617.319 1.035.628 1.258.924.217.3.325.638.325 1.012 0 .529-.186.978-.558 1.344-.37.366-.835.55-1.392.55a2.44 2.44 0 0 1-1.064-.242 2.298 2.298 0 0 1-.838-.669l.521-.592c.423.478.871.716 1.346.716.332 0 .615-.105.849-.319.232-.213.351-.464.351-.751a.97.97 0 0 0-.232-.634c-.154-.182-.501-.41-1.044-.687-.58-.299-.977-.595-1.185-.888a1.661 1.661 0 0 1-.314-1c0-.489.167-.896.499-1.22.334-.323.757-.484 1.268-.484.59-.001 1.187.289 1.787.868z" fill="#FFF"/><path fill="#040505" d="M5 31.097h4.438l3.634 10.813 3.909-10.813h2.714l3.839 10.69 3.638-10.69h4.467l-6.594 19.006h-2.872l-3.853-10.83-3.97 10.83h-2.839L5 31.097z"/><path fill="#040505" d="M48.374 41.979h-15.32c.222 1.352.813 2.425 1.773 3.223.961.798 2.187 1.197 3.677 1.197 1.782 0 3.313-.624 4.595-1.869 0 0 2.993-.005 4.634-.005 0 1-.615 1.892-.615 1.892-1.003 1.42-2.202 2.471-3.6 3.152s-3.057 1.021-4.978 1.021c-2.981 0-5.41-.94-7.285-2.82-1.875-1.881-2.812-4.236-2.812-7.066 0-2.899.934-5.308 2.803-7.223 1.87-1.916 4.213-2.874 7.031-2.874 2.993 0 5.427.958 7.302 2.874 1.875 1.915 2.812 4.445 2.812 7.59l-.017.908zm-4.769-3.755c-.315-1.06-.937-1.922-1.864-2.585-.927-.664-2.004-.996-3.228-.996-1.33 0-2.497.373-3.5 1.118-.63.466-1.213 1.287-1.75 2.463h10.342z"/><path fill="#040505" d="M52.688 24.818v8.375c.862-.862 1.793-1.509 2.795-1.939s2.073-.646 3.215-.646c2.479 0 4.588.938 6.323 2.812s2.603 4.28 2.603 7.215c0 2.83-.896 5.196-2.69 7.101-1.793 1.904-3.919 2.855-6.375 2.855a7.918 7.918 0 0 1-3.059-.585c-.942-.39-1.879-1.027-2.812-1.912v2.009h-4.733V24.818h4.733zm5.014 10.192c-1.501 0-2.748.513-3.737 1.537-.991 1.024-1.485 2.364-1.485 4.018 0 1.688.494 3.055 1.485 4.097.989 1.042 2.236 1.562 3.737 1.562 1.456 0 2.683-.529 3.678-1.589.994-1.06 1.494-2.411 1.494-4.053 0-1.63-.49-2.966-1.467-4.009-.978-1.043-2.215-1.563-3.705-1.563z"/><path fill="#E5A630" d="M16.234 49.857v2.044c.841-.841 1.749-1.47 2.727-1.891a7.858 7.858 0 0 1 3.136-.631c2.42 0 4.476.915 6.17 2.743 1.692 1.83 2.539 4.176 2.539 7.039 0 2.761-.875 5.07-2.625 6.928-1.749 1.857-3.823 2.786-6.221 2.786a7.729 7.729 0 0 1-2.981-.57c-.921-.381-1.836-1.004-2.744-1.867v8.12h-4.619V49.857h4.618zm4.892 3.817c-1.466 0-2.682.5-3.647 1.501-.966 1-1.449 2.306-1.449 3.92 0 1.646.483 2.979 1.449 3.996.966 1.017 2.182 1.525 3.647 1.525 1.42 0 2.615-.519 3.587-1.551.972-1.035 1.457-2.352 1.457-3.955 0-1.59-.478-2.894-1.432-3.91s-2.159-1.526-3.612-1.526z"/><path fill="#E5A630" d="M45.063 49.857h4.06v18.542h-4.06v-1.961c-.963.863-1.928 1.486-2.896 1.867-.968.38-2.019.57-3.148.57-2.538 0-4.733-.929-6.586-2.786-1.854-1.857-2.779-4.167-2.779-6.928 0-2.863.896-5.209 2.689-7.039 1.792-1.828 3.969-2.743 6.531-2.743 1.179 0 2.285.211 3.319.631 1.035.421 1.991 1.05 2.87 1.891v-2.044zm-5.184 3.817c-1.524 0-2.791.51-3.799 1.526-1.009 1.017-1.513 2.32-1.513 3.91 0 1.604.513 2.92 1.539 3.955 1.026 1.032 2.289 1.551 3.791 1.551 1.548 0 2.832-.509 3.852-1.525 1.021-1.018 1.531-2.35 1.531-3.996 0-1.614-.511-2.92-1.531-3.92-1.02-1.001-2.31-1.501-3.87-1.501z"/><path fill="#E5A630" d="M49.123 49.857h4.754l4.816 11.634 5.314-11.634h4.768L57.163 75.182h-4.805l3.812-8.166-7.047-17.159z"/></svg>